<svg id="Lager_1" xmlns="http://www.w3.org/2000/svg" viewBox="0 0 373.9 103"><style>.st0{fill:#e21d3b}</style><path d="M130.3 41.6c2.3-2.3 2.4-5.4 2.4-7.5V15h-6.5v19.1c0 1.2 0 2.5-.8 3.3-.5.5-1 .6-1.5.6-.6 0-1.1-.2-1.6-.6-.3-.3-.8-1.1-1-1.6l-4 4.5c.7.9 1.8 1.8 2.7 2.4 1.5.9 2.9 1 4.5 1 1.7 0 4-.2 5.8-2.1zm23 2.1c4.7 0 8.2-1.6 10.9-4.1 3-2.9 4.4-6.8 4.4-10.5 0-4.3-1.7-8-4.4-10.6-2.8-2.7-6.5-4.1-10.9-4.1-5.6 0-9.1 2.2-11 4.1-2.5 2.5-4.3 6.6-4.3 10.6 0 4.1 1.7 7.9 4.4 10.4 2.1 2.1 5.7 4.2 10.9 4.2zm-6.1-20.9c1.5-1.5 3.7-2.4 6.1-2.4 2.6 0 4.8 1.1 6.2 2.4 1.3 1.3 2.4 3.4 2.4 6.3 0 3.2-1.3 5.2-2.4 6.3-1.3 1.3-3.4 2.4-6.2 2.4-2.2 0-4.2-.6-6-2.3-1.7-1.7-2.6-3.7-2.6-6.3 0-3.2 1.2-5.3 2.5-6.4zm44.7 8.7c0 1.2-.1 3.3-1.5 4.7-1.1 1.2-2.7 1.5-3.9 1.5-1.2 0-2.8-.3-3.9-1.5-1.4-1.4-1.5-3.5-1.5-4.7V15h-6.5v16.6c0 2.7.3 6 3.1 8.9 2.7 2.8 5.8 3.2 8.8 3.2 2.9 0 6.1-.4 8.8-3.2 2.8-2.9 3.1-6.2 3.1-8.9V15h-6.5v16.5zm27.2.1c1.6-.4 2.9-1.2 3.9-2.1 1.8-1.8 2.2-4 2.2-5.7 0-3.1-1.3-5.1-2.4-6.3-1.3-1.3-3.6-2.4-7.2-2.4h-9.8v28.1h6.5V32l7.6 11.1h7.9l-8.7-11.5zm-1.5-5.1c-1.1 1.1-2.7 1.2-3.9 1.2h-1.5V20h1.5c.8 0 2.5.1 3.6.9.5.4 1.3 1.3 1.3 2.9 0 1.4-.6 2.3-1 2.7zm21.4-1.6l15.3 18.2h5.6V15h-6.5v18.1L238.2 15h-5.6v28.1h6.4zm42.6-9.9h-5.9l-11.3 28.1h6.7l2.1-5.3h10.6l2.1 5.3h6.7l-11-28.1zm-6.5 17.8l3.5-9.4 3.5 9.4h-7zM303.5 15H297v28.1h15.2v-5.5h-8.7zm15.5 0h6.5v28.1H319zm20.9 23c-1.3 0-2.4-.3-3.5-1-.8-.5-1.9-1.4-2.6-2.1l-3.4 4.6c1.1 1.1 2.7 2.4 4.1 3.1 1.8.9 3.5 1.2 5.6 1.2 1.9 0 5.5-.3 8-2.9 1.5-1.5 2.5-4 2.5-6.9 0-1.6-.4-3.7-2.1-5.2-1.1-1.1-2.6-1.7-3.8-2.1l-2.1-.8c-1.9-.7-2.9-1-3.5-1.6-.4-.4-.6-.9-.6-1.6 0-.7.3-1.3.7-1.8.8-.8 1.9-1 2.7-1 .8 0 2.6.1 4.7 2l2.9-4.7c-3.3-2.4-6.4-2.8-8.3-2.8-2.6 0-5 .5-6.9 2.6-1.7 1.7-2.4 3.8-2.4 6.3 0 1.3.2 3.3 1.7 4.9 1.1 1.2 2.6 1.8 3.9 2.2l2.3.8c.8.3 2.5.9 3.3 1.6.6.5 1 1.1 1 2 0 1.1-.5 1.8-1 2.3-1.1.7-2.3.9-3.2.9zm13.8-23v5.5h6.1v22.6h6.5V20.5h6.1V15zM122 87h3.1V73.2h9.4v-3h-9.4v-8.3h9.7V59H122z"/><circle cx="151.5" cy="54.1" r="2.1"/><circle cx="159.4" cy="54.1" r="2.1"/><path d="M155.4 58.5c-8.1 0-14.6 6.1-14.6 14.5 0 8.3 6.5 14.5 14.6 14.5S170 81.4 170 73c0-8.3-6.5-14.5-14.6-14.5zm0 26.1c-6.3 0-11.4-5.1-11.4-11.6s5.1-11.6 11.4-11.6 11.4 5.1 11.4 11.6-5 11.6-11.4 11.6zm36.9-17.8c0-3-1.4-5.1-3.1-6.2-2.1-1.4-4.9-1.6-6.8-1.6h-4.5v28h3.1V74.7h.8l8.5 12.3h3.8l-8.9-12.5c4.2-.3 7.1-3.5 7.1-7.7zM181 72V61.9h1.9c1.3 0 2.8.1 4 .8 1.8 1 2.2 2.6 2.2 4.1 0 3.3-2.3 5.1-6.2 5.1H181zm31.3.1c2.5-1.7 2.8-4.1 2.8-5.5 0-3.4-1.6-5.1-2.5-5.8-2.1-1.6-4.9-1.8-6.4-1.8h-5v28h7c1.9 0 4.5-.1 6.7-1.9 1.5-1.2 2.9-3.4 2.9-6.1s-1.6-6-5.5-6.9zm-8.1-10.2h2.4c.9 0 5.4.1 5.4 4.7 0 4.3-3.9 4.7-5.5 4.7h-2.4v-9.4zm8.5 21c-1.3 1.1-3.1 1.2-4.9 1.2h-3.6v-10h3.2c2.2 0 3.7.3 4.8.8 1.1.6 2.4 1.9 2.4 4.1-.1 1.7-.8 3.1-1.9 3.9zm29.2-6.7c0 2.4 0 4.9-2.2 6.8-1.1 1-3.1 1.6-4.6 1.6-1.6 0-3.5-.6-4.6-1.6-2.2-1.9-2.2-4.5-2.2-6.8V59h-3.1v18c0 2.4.3 4.6 1.8 6.7 1.7 2.3 4.6 3.8 8.2 3.8 3.6 0 6.5-1.5 8.2-3.8 1.5-2.1 1.8-4.4 1.8-6.7V59h-3.1v17.2zm33.6 4.5l-21.8-22.9V87h3.1V65.4l21.9 22.9V59h-3.2zm27.3-18.4c-3.5-3-7.5-3.3-10.3-3.3h-5.7v28h5.7c5 0 7.7-1.1 10.3-3.2 2-1.7 4.9-4.9 4.9-10.8-.1-5-2.3-8.6-4.9-10.7zm-2.2 19.3c-2.7 2.3-5.8 2.5-8 2.5h-2.7V61.9h2.7c7.1 0 11.8 4.4 11.8 11.1 0 4-1.7 6.8-3.8 8.6zm14 5.4h14.5v-2.9h-11.4V73.2h11.1v-3h-11.1v-8.3h11.4V59h-14.5zm19.3-25.1h6.8V87h3.2V61.9h6.8V59h-16.8z"/><path class="st0" d="M51.4.9C23.5.9.9 23.5.9 51.3c0 14.4 6 27.3 15.7 36.5v13.9L30 97.1c6.5 3 13.7 4.7 21.3 4.7 27.9 0 50.5-22.6 50.5-50.5C101.8 23.5 79.2.9 51.4.9z"/></svg>